<?xml version="1.0" encoding="UTF-8"?>
<!DOCTYPE svg PUBLIC "-//W3C//DTD SVG 1.1//EN"
    "http://www.w3.org/Graphics/SVG/1.1/DTD/svg11.dtd">
<svg xmlns="http://www.w3.org/2000/svg" xmlns:xlink="http://www.w3.org/1999/xlink" version="1.1" width="320" height="240" viewBox="0 0 640 480"><g fill="none" stroke="black" color="black" font-size="32" dominant-baseline="middle" text-anchor="middle" font-family="sans-serif"><polygon points="120,90 520,90 520,390 120,390" stroke-width="4" /><text x="40" y="240" fill="black">i</text><text x="600" y="240" fill="black">o</text><text x="320" y="40" fill="black">r</text><polygon points="260,195 380,195 380,285 260,285" stroke-width="4" /><text x="320" y="240" fill="black">inner</text><line x1="50.0" y1="240.0" x2="250.0" y2="240.0" stroke-width="2" /><polygon points="260,240 248,232 250,240 248,248" stroke-width="1" fill="black" /><text x="460" y="240" fill="black">?</text><circle cx="460" cy="240" r="20" /><line x1="380.0" y1="240.0" x2="430.0" y2="240.0" stroke-width="2" /><polygon points="440,240 428,232 430,240 428,248" stroke-width="1" fill="black" /><line x1="480.0" y1="240.0" x2="580.0" y2="240.0" stroke-width="2" /><polygon points="590,240 578,232 580,240 578,248" stroke-width="1" fill="black" /><line x1="320.0" y1="195.0" x2="320.0" y2="70.0" stroke-width="2" /><polygon points="320,60 312,72 320,70 328,72" stroke-width="1" fill="black" /><polyline points="460,260 460,330 180,330 180,240" stroke-width="2" /><text x="320" y="355" fill="black">i</text></g></svg>