<?xml version="1.0" encoding="UTF-8"?>
<!DOCTYPE svg PUBLIC "-//W3C//DTD SVG 1.1//EN"
    "http://www.w3.org/Graphics/SVG/1.1/DTD/svg11.dtd">
<svg xmlns="http://www.w3.org/2000/svg" xmlns:xlink="http://www.w3.org/1999/xlink" version="1.1" width="320" height="240" viewBox="0 0 640 480"><g fill="none" stroke="black" color="black" font-size="32" dominant-baseline="middle" text-anchor="middle" font-family="sans-serif"><polygon points="120,90 520,90 520,390 120,390" stroke-width="4" /><text x="40" y="240" fill="black">i</text><text x="600" y="240" fill="black">o</text><text x="320" y="40" fill="black">r</text><polygon points="160,195 280,195 280,285 160,285" stroke-width="4" /><polygon points="360,195 480,195 480,285 360,285" stroke-width="4" /><line x1="50.0" y1="240.0" x2="150.0" y2="240.0" stroke-width="2" /><polygon points="160,240 148,232 150,240 148,248" stroke-width="1" fill="black" /><line x1="280.0" y1="240.0" x2="350.0" y2="240.0" stroke-width="2" /><polygon points="360,240 348,232 350,240 348,248" stroke-width="1" fill="black" /><line x1="480.0" y1="240.0" x2="580.0" y2="240.0" stroke-width="2" /><polygon points="590,240 578,232 580,240 578,248" stroke-width="1" fill="black" /><text x="220" y="240" fill="black">c1</text><text x="420" y="240" fill="black">c2</text><text x="320" y="220" fill="black">x</text><polyline points="420,195 420,141 320,141 320,70" stroke-width="2" /><polygon points="320,60 312,72 320,70 328,72" stroke-width="1" fill="black" /><ellipse cx="220" cy="119" rx="12" ry="6" stroke-width="2" /><polyline points="208,121 212.8,151 227.2,151 232,121" stroke-width="2" /><line x1="220.0" y1="195.0" x2="220.0" y2="165.0" stroke-width="2" /><polygon points="220,155 212,167 220,165 228,167" stroke-width="1" fill="black" /></g></svg>