<?xml version="1.0" encoding="UTF-8"?>
<!DOCTYPE svg PUBLIC "-//W3C//DTD SVG 1.1//EN"
    "http://www.w3.org/Graphics/SVG/1.1/DTD/svg11.dtd">
<svg xmlns="http://www.w3.org/2000/svg" xmlns:xlink="http://www.w3.org/1999/xlink" version="1.1" width="320" height="240" viewBox="0 0 640 480"><g fill="none" stroke="black" color="black" font-size="32" dominant-baseline="middle" text-anchor="middle" font-family="sans-serif"><polygon points="120,90 520,90 520,390 120,390" stroke-width="4" /><text x="40" y="240" fill="black">i</text><text x="600" y="240" fill="black">o</text><text x="320" y="40" fill="black">(r1,r2)</text><polygon points="160,195 280,195 280,285 160,285" stroke-width="4" /><polygon points="360,195 480,195 480,285 360,285" stroke-width="4" /><line x1="50.0" y1="240.0" x2="150.0" y2="240.0" stroke-width="2" /><polygon points="160,240 148,232 150,240 148,248" stroke-width="1" fill="black" /><line x1="280.0" y1="240.0" x2="350.0" y2="240.0" stroke-width="2" /><polygon points="360,240 348,232 350,240 348,248" stroke-width="1" fill="black" /><line x1="480.0" y1="240.0" x2="580.0" y2="240.0" stroke-width="2" /><polygon points="590,240 578,232 580,240 578,248" stroke-width="1" fill="black" /><text x="220" y="240" fill="black">c1</text><text x="420" y="240" fill="black">c2</text><text x="320" y="220" fill="black">x</text><circle cx="320" cy="141" r="25" /><polyline points="220,195 220,141 285,141" stroke-width="2" /><polygon points="295,141 283,133 285,141 283,149" stroke-width="1" fill="black" /><polyline points="420,195 420,141 355,141" stroke-width="2" /><polygon points="345,141 357,149 355,141 357,133" stroke-width="1" fill="black" /><line x1="320.0" y1="116.0" x2="320.0" y2="70.0" stroke-width="2" /><polygon points="320,60 312,72 320,70 328,72" stroke-width="1" fill="black" /><text x="440" y="165" fill="black">r2</text><text x="200" y="165" fill="black">r1</text><text x="320" y="141" fill="black">(,)</text></g></svg>