<?xml version="1.0" encoding="UTF-8"?>
<!DOCTYPE svg PUBLIC "-//W3C//DTD SVG 1.1//EN"
    "http://www.w3.org/Graphics/SVG/1.1/DTD/svg11.dtd">
<svg xmlns="http://www.w3.org/2000/svg" xmlns:xlink="http://www.w3.org/1999/xlink" version="1.1" width="320" height="240" viewBox="0 0 640 480"><g fill="none" stroke="black" color="black" font-size="32" dominant-baseline="middle" text-anchor="middle" font-family="sans-serif"><polygon points="120,90 520,90 520,390 120,390" stroke-width="4" /><text x="40" y="240" fill="black">i</text><text x="600" y="240" fill="black">o</text><polygon points="220,125 420,125 420,175 220,175" stroke-width="4" /><polygon points="220,185 420,185 420,235 220,235" stroke-width="4" /><polygon points="220,305 420,305 420,355 220,355" stroke-width="4" /><text x="320" y="150" fill="black">inner #1</text><text x="320" y="210" fill="black">inner #2</text><text x="320" y="270" fill="black">...</text><text x="320" y="330" fill="black">inner #num</text><line x1="50.0" y1="240.0" x2="160.0" y2="240.0" stroke-width="2" /><line x1="160.0" y1="150.0" x2="160.0" y2="330.0" stroke-width="2" /><line x1="160.0" y1="150.0" x2="210.0" y2="150.0" stroke-width="2" /><polygon points="220,150 208,142 210,150 208,158" stroke-width="1" fill="black" /><line x1="160.0" y1="210.0" x2="210.0" y2="210.0" stroke-width="2" /><polygon points="220,210 208,202 210,210 208,218" stroke-width="1" fill="black" /><line x1="160.0" y1="330.0" x2="210.0" y2="330.0" stroke-width="2" /><polygon points="220,330 208,322 210,330 208,338" stroke-width="1" fill="black" /><line x1="480.0" y1="240.0" x2="580.0" y2="240.0" stroke-width="2" /><polygon points="590,240 578,232 580,240 578,248" stroke-width="1" fill="black" /><line x1="480.0" y1="150.0" x2="480.0" y2="330.0" stroke-width="2" /><line x1="420.0" y1="150.0" x2="480.0" y2="150.0" stroke-width="2" /><line x1="420.0" y1="210.0" x2="480.0" y2="210.0" stroke-width="2" /><line x1="420.0" y1="330.0" x2="480.0" y2="330.0" stroke-width="2" /></g></svg>