<?xml version="1.0" encoding="UTF-8"?>
<!DOCTYPE svg PUBLIC "-//W3C//DTD SVG 1.1//EN"
    "http://www.w3.org/Graphics/SVG/1.1/DTD/svg11.dtd">
<svg xmlns="http://www.w3.org/2000/svg" xmlns:xlink="http://www.w3.org/1999/xlink" version="1.1" width="320" height="240" viewBox="0 0 640 480"><g fill="none" stroke="black" color="black" font-size="32" dominant-baseline="middle" text-anchor="middle" font-family="sans-serif"><polygon points="120,90 520,90 520,390 120,390" stroke-width="4" /><text x="40" y="240" fill="black">i</text><text x="600" y="240" fill="black">o</text><polygon points="245,125 395,125 395,175 245,175" stroke-width="4" /><polygon points="245,185 395,185 395,235 245,235" stroke-width="4" /><polygon points="245,305 395,305 395,355 245,355" stroke-width="4" /><text x="320" y="150" fill="black">f #1</text><text x="320" y="210" fill="black">f #2</text><text x="320" y="270" fill="black">...</text><text x="320" y="330" fill="black">f #n</text><line x1="50.0" y1="240.0" x2="160.0" y2="240.0" stroke-width="2" /><line x1="160.0" y1="150.0" x2="160.0" y2="330.0" stroke-width="2" /><line x1="160.0" y1="150.0" x2="235.0" y2="150.0" stroke-width="2" /><polygon points="245,150 233,142 235,150 233,158" stroke-width="1" fill="black" /><line x1="160.0" y1="210.0" x2="235.0" y2="210.0" stroke-width="2" /><polygon points="245,210 233,202 235,210 233,218" stroke-width="1" fill="black" /><line x1="160.0" y1="330.0" x2="235.0" y2="330.0" stroke-width="2" /><polygon points="245,330 233,322 235,330 233,338" stroke-width="1" fill="black" /><line x1="480.0" y1="240.0" x2="580.0" y2="240.0" stroke-width="2" /><polygon points="590,240 578,232 580,240 578,248" stroke-width="1" fill="black" /><line x1="480.0" y1="150.0" x2="480.0" y2="330.0" stroke-width="2" /><line x1="395.0" y1="150.0" x2="480.0" y2="150.0" stroke-width="2" /><line x1="395.0" y1="210.0" x2="480.0" y2="210.0" stroke-width="2" /><line x1="395.0" y1="330.0" x2="480.0" y2="330.0" stroke-width="2" /></g></svg>