<?xml version="1.0" encoding="UTF-8"?>
<!DOCTYPE svg PUBLIC "-//W3C//DTD SVG 1.1//EN"
    "http://www.w3.org/Graphics/SVG/1.1/DTD/svg11.dtd">
<svg xmlns="http://www.w3.org/2000/svg" xmlns:xlink="http://www.w3.org/1999/xlink" version="1.1" width="320" height="240" viewBox="0 0 640 480"><g fill="none" stroke="black" color="black" font-size="32" dominant-baseline="middle" text-anchor="middle" font-family="sans-serif"><polygon points="120,90 520,90 520,390 120,390" stroke-width="4" /><text x="40" y="240" fill="black">a</text><text x="600" y="240" fill="black">d</text><text x="320" y="40" fill="black">r</text><polygon points="260,195 380,195 380,285 260,285" stroke-width="4" /><polygon points="145,215 195,215 195,265 145,265" stroke-width="4" /><polygon points="445,215 495,215 495,265 445,265" stroke-width="4" /><text x="320" y="240" fill="black">inner</text><text x="170" y="240" fill="black">f</text><text x="470" y="240" fill="black">g</text><text x="230" y="220" fill="black">b</text><text x="410" y="220" fill="black">c</text><line x1="320.0" y1="195.0" x2="320.0" y2="70.0" stroke-width="2" /><polygon points="320,60 312,72 320,70 328,72" stroke-width="1" fill="black" /><line x1="50.0" y1="240.0" x2="135.0" y2="240.0" stroke-width="2" /><polygon points="145,240 133,232 135,240 133,248" stroke-width="1" fill="black" /><line x1="195.0" y1="240.0" x2="250.0" y2="240.0" stroke-width="2" /><polygon points="260,240 248,232 250,240 248,248" stroke-width="1" fill="black" /><line x1="380.0" y1="240.0" x2="435.0" y2="240.0" stroke-width="2" /><polygon points="445,240 433,232 435,240 433,248" stroke-width="1" fill="black" /><line x1="495.0" y1="240.0" x2="580.0" y2="240.0" stroke-width="2" /><polygon points="590,240 578,232 580,240 578,248" stroke-width="1" fill="black" /></g></svg>