<?xml version="1.0" encoding="UTF-8"?>
<!DOCTYPE svg PUBLIC "-//W3C//DTD SVG 1.1//EN"
    "http://www.w3.org/Graphics/SVG/1.1/DTD/svg11.dtd">
<svg xmlns="http://www.w3.org/2000/svg" xmlns:xlink="http://www.w3.org/1999/xlink" version="1.1" width="320" height="240" viewBox="0 0 640 480"><g fill="none" stroke="black" color="black" font-size="32" dominant-baseline="middle" text-anchor="middle" font-family="sans-serif"><polygon points="120,90 520,90 520,390 120,390" stroke-width="4" /><text x="600" y="240" fill="black">c</text><polygon points="260,135 380,135 380,225 260,225" stroke-width="4" /><polygon points="260,255 380,255 380,345 260,345" stroke-width="4" /><text x="320" y="180" fill="black">alpha</text><text x="320" y="300" fill="black">beta</text><circle cx="180" cy="240" r="20" /><text x="180" y="240" fill="black">?</text><polyline points="180,220 180,180 250,180" stroke-width="2" /><polygon points="260,180 248,172 250,180 248,188" stroke-width="1" fill="black" /><polyline points="180,260 180,300 250,300" stroke-width="2" /><polygon points="260,300 248,292 250,300 248,308" stroke-width="1" fill="black" /><text x="220" y="160" fill="black">a</text><text x="220" y="320" fill="black">b</text><polyline points="380,180 460,180 460,240" stroke-width="2" /><polyline points="380,300 460,300 460,240" stroke-width="2" /><line x1="460.0" y1="240.0" x2="580.0" y2="240.0" stroke-width="2" /><polygon points="590,240 578,232 580,240 578,248" stroke-width="1" fill="black" /><text x="60" y="240" fill="black" font-size="20">Either a b</text><line x1="105.0" y1="240.0" x2="150.0" y2="240.0" stroke-width="2" /><polygon points="160,240 148,232 150,240 148,248" stroke-width="1" fill="black" /></g></svg>