<?xml version="1.0" encoding="UTF-8"?>
<!DOCTYPE svg PUBLIC "-//W3C//DTD SVG 1.1//EN"
    "http://www.w3.org/Graphics/SVG/1.1/DTD/svg11.dtd">
<svg xmlns="http://www.w3.org/2000/svg" xmlns:xlink="http://www.w3.org/1999/xlink" version="1.1" width="320" height="240" viewBox="0 0 640 480"><g fill="none" stroke="black" color="black" font-size="32" dominant-baseline="middle" text-anchor="middle" font-family="sans-serif"><polygon points="120,90 520,90 520,390 120,390" stroke-width="4" /><text x="40" y="240" fill="black">i</text><text x="600" y="240" fill="black">i</text><text x="320" y="40" fill="black">r</text><polygon points="260,135 380,135 380,225 260,225" stroke-width="4" /><text x="320" y="180" fill="black">sink</text><line x1="320.0" y1="135.0" x2="320.0" y2="70.0" stroke-width="2" /><polygon points="320,60 312,72 320,70 328,72" stroke-width="1" fill="black" /><polyline points="50,240 170,240 170,300 470,300 470,240 580,240" stroke-width="2" /><polygon points="590,240 578,232 580,240 578,248" stroke-width="1" fill="black" /><polyline points="170,240 170,180 250,180" stroke-width="2" /><polygon points="260,180 248,172 250,180 248,188" stroke-width="1" fill="black" /></g></svg>