<?xml version="1.0" encoding="UTF-8"?>
<!DOCTYPE svg PUBLIC "-//W3C//DTD SVG 1.1//EN"
    "http://www.w3.org/Graphics/SVG/1.1/DTD/svg11.dtd">
<svg xmlns="http://www.w3.org/2000/svg" xmlns:xlink="http://www.w3.org/1999/xlink" version="1.1" width="320" height="240" viewBox="0 0 640 480"><g fill="none" stroke="black" color="black" font-size="32" dominant-baseline="middle" text-anchor="middle" font-family="sans-serif"><polygon points="120,90 520,90 520,390 120,390" stroke-width="4" /><text x="40" y="240" fill="black">f i</text><text x="600" y="240" fill="black">f o</text><polygon points="245,210 395,210 395,270 245,270" stroke-width="4" /><text x="320" y="240" fill="black">inner</text><text x="170" y="240" fill="black">?</text><circle cx="170" cy="240" r="20" /><line x1="60.0" y1="240.0" x2="140.0" y2="240.0" stroke-width="2" /><polygon points="150,240 138,232 140,240 138,248" stroke-width="1" fill="black" /><line x1="190.0" y1="240.0" x2="235.0" y2="240.0" stroke-width="2" /><polygon points="245,240 233,232 235,240 233,248" stroke-width="1" fill="black" /><text x="210" y="220" fill="black">i</text><text x="420" y="220" fill="black">o</text><text x="320" y="135" fill="black">f ()</text><text x="470" y="240" fill="black">+</text><circle cx="470" cy="240" r="20" /><line x1="395.0" y1="240.0" x2="440.0" y2="240.0" stroke-width="2" /><polygon points="450,240 438,232 440,240 438,248" stroke-width="1" fill="black" /><polyline points="170,220 170,160 470,160 470,210" stroke-width="2" /><polygon points="470,220 478,208 470,210 462,208" stroke-width="1" fill="black" /><line x1="490.0" y1="240.0" x2="570.0" y2="240.0" stroke-width="2" /><polygon points="580,240 568,232 570,240 568,248" stroke-width="1" fill="black" /></g></svg>